<svg width="48" height="46" viewBox="0 0 48 46" fill="none" xmlns="http://www.w3.org/2000/svg">
<path fill-rule="evenodd" clip-rule="evenodd" d="M34.5 3.49922C33.909 3.49922 33.3239 3.61561 32.7779 3.84176C32.232 4.06791 31.7359 4.39937 31.318 4.81724C30.9002 5.2351 30.5687 5.73118 30.3425 6.27714C30.1164 6.82311 30 7.40827 30 7.99922C30 8.59017 30.1164 9.17533 30.3425 9.72129C30.5687 10.2673 30.9002 10.7633 31.318 11.1812C31.7359 11.5991 32.232 11.9305 32.7779 12.1567C33.3239 12.3828 33.909 12.4992 34.5 12.4992C35.6935 12.4992 36.8381 12.0251 37.682 11.1812C38.5259 10.3373 39 9.19269 39 7.99922C39 6.80574 38.5259 5.66115 37.682 4.81724C36.8381 3.97332 35.6935 3.49922 34.5 3.49922ZM27.15 6.49922C27.4943 4.80379 28.4141 3.27951 29.7536 2.18465C31.0931 1.0898 32.77 0.491699 34.5 0.491699C36.23 0.491699 37.9069 1.0898 39.2464 2.18465C40.5859 3.27951 41.5057 4.80379 41.85 6.49922H48V9.49922H41.85C41.5057 11.1947 40.5859 12.7189 39.2464 13.8138C37.9069 14.9086 36.23 15.5067 34.5 15.5067C32.77 15.5067 31.0931 14.9086 29.7536 13.8138C28.4141 12.7189 27.4943 11.1947 27.15 9.49922H0V6.49922H27.15ZM13.5 18.4992C12.3065 18.4992 11.1619 18.9733 10.318 19.8172C9.47411 20.6611 9 21.8057 9 22.9992C9 24.1927 9.47411 25.3373 10.318 26.1812C11.1619 27.0251 12.3065 27.4992 13.5 27.4992C14.6935 27.4992 15.8381 27.0251 16.682 26.1812C17.5259 25.3373 18 24.1927 18 22.9992C18 21.8057 17.5259 20.6611 16.682 19.8172C15.8381 18.9733 14.6935 18.4992 13.5 18.4992ZM6.15 21.4992C6.49427 19.8038 7.41409 18.2795 8.75361 17.1847C10.0931 16.0898 11.77 15.4917 13.5 15.4917C15.23 15.4917 16.9069 16.0898 18.2464 17.1847C19.5859 18.2795 20.5057 19.8038 20.85 21.4992H48V24.4992H20.85C20.5057 26.1947 19.5859 27.7189 18.2464 28.8138C16.9069 29.9086 15.23 30.5067 13.5 30.5067C11.77 30.5067 10.0931 29.9086 8.75361 28.8138C7.41409 27.7189 6.49427 26.1947 6.15 24.4992H0V21.4992H6.15ZM34.5 33.4992C33.3065 33.4992 32.1619 33.9733 31.318 34.8172C30.4741 35.6612 30 36.8057 30 37.9992C30 39.1927 30.4741 40.3373 31.318 41.1812C32.1619 42.0251 33.3065 42.4992 34.5 42.4992C35.6935 42.4992 36.8381 42.0251 37.682 41.1812C38.5259 40.3373 39 39.1927 39 37.9992C39 36.8057 38.5259 35.6612 37.682 34.8172C36.8381 33.9733 35.6935 33.4992 34.5 33.4992ZM27.15 36.4992C27.4943 34.8038 28.4141 33.2795 29.7536 32.1847C31.0931 31.0898 32.77 30.4917 34.5 30.4917C36.23 30.4917 37.9069 31.0898 39.2464 32.1847C40.5859 33.2795 41.5057 34.8038 41.85 36.4992H48V39.4992H41.85C41.5057 41.1947 40.5859 42.7189 39.2464 43.8138C37.9069 44.9086 36.23 45.5067 34.5 45.5067C32.77 45.5067 31.0931 44.9086 29.7536 43.8138C28.4141 42.7189 27.4943 41.1947 27.15 39.4992H0V36.4992H27.15Z" fill="black"/>
</svg>
