<svg width="48" height="49" viewBox="0 0 48 49" fill="none" xmlns="http://www.w3.org/2000/svg">
<path d="M23.9997 14.7637C22.7209 14.7637 21.4546 15.0156 20.2731 15.5049C19.0917 15.9943 18.0182 16.7116 17.1139 17.6159C16.2097 18.5201 15.4924 19.5936 15.003 20.7751C14.5136 21.9566 14.2617 23.2229 14.2617 24.5017C14.2617 25.7805 14.5136 27.0468 15.003 28.2282C15.4924 29.4097 16.2097 30.4832 17.1139 31.3875C18.0182 32.2917 19.0917 33.009 20.2731 33.4984C21.4546 33.9878 22.7209 34.2397 23.9997 34.2397C26.5824 34.2397 29.0593 33.2137 30.8855 31.3875C32.7118 29.5612 33.7377 27.0843 33.7377 24.5017C33.7377 21.919 32.7118 19.4421 30.8855 17.6159C29.0593 15.7896 26.5824 14.7637 23.9997 14.7637ZM17.2617 24.5017C17.2617 22.7146 17.9716 21.0008 19.2352 19.7372C20.4989 18.4736 22.2127 17.7637 23.9997 17.7637C25.7867 17.7637 27.5006 18.4736 28.7642 19.7372C30.0278 21.0008 30.7377 22.7146 30.7377 24.5017C30.7377 26.2887 30.0278 28.0025 28.7642 29.2662C27.5006 30.5298 25.7867 31.2397 23.9997 31.2397C22.2127 31.2397 20.4989 30.5298 19.2352 29.2662C17.9716 28.0025 17.2617 26.2887 17.2617 24.5017Z" fill="black"/>
<path d="M29.3875 4.52896C27.8065 -0.841035 20.1925 -0.841035 18.6115 4.52896L18.3295 5.48596C18.2191 5.86082 18.0262 6.20622 17.7649 6.49684C17.5037 6.78746 17.1807 7.01594 16.8197 7.16552C16.4587 7.31511 16.0688 7.38201 15.6785 7.36132C15.2883 7.34063 14.9077 7.23288 14.5645 7.04596L13.6885 6.56597C8.76848 3.88997 3.38948 9.27197 6.06848 14.189L6.54548 15.065C6.73239 15.4081 6.84014 15.7888 6.86083 16.179C6.88152 16.5693 6.81462 16.9592 6.66503 17.3202C6.51545 17.6812 6.28697 18.0042 5.99635 18.2654C5.70573 18.5267 5.36033 18.7196 4.98548 18.83L4.02848 19.112C-1.34152 20.693 -1.34152 28.307 4.02848 29.888L4.98548 30.17C5.36033 30.2804 5.70573 30.4733 5.99635 30.7345C6.28697 30.9958 6.51545 31.3187 6.66503 31.6797C6.81462 32.0408 6.88152 32.4307 6.86083 32.8209C6.84014 33.2111 6.73239 33.5918 6.54548 33.935L6.06548 34.811C3.38948 39.731 8.76848 45.113 13.6885 42.431L14.5645 41.954C14.9077 41.767 15.2883 41.6593 15.6785 41.6386C16.0688 41.6179 16.4587 41.6848 16.8197 41.8344C17.1807 41.984 17.5037 42.2125 17.7649 42.5031C18.0262 42.7937 18.2191 43.1391 18.3295 43.514L18.6115 44.471C20.1925 49.841 27.8065 49.841 29.3875 44.471L29.6695 43.514C29.7799 43.1391 29.9728 42.7937 30.234 42.5031C30.4953 42.2125 30.8182 41.984 31.1793 41.8344C31.5403 41.6848 31.9302 41.6179 32.3204 41.6386C32.7106 41.6593 33.0913 41.767 33.4345 41.954L34.3105 42.434C39.2305 45.113 44.6125 39.728 41.9305 34.811L41.4535 33.935C41.2666 33.5918 41.1588 33.2111 41.1381 32.8209C41.1174 32.4307 41.1843 32.0408 41.3339 31.6797C41.4835 31.3187 41.712 30.9958 42.0026 30.7345C42.2932 30.4733 42.6386 30.2804 43.0135 30.17L43.9705 29.888C49.3405 28.307 49.3405 20.693 43.9705 19.112L43.0135 18.83C42.6386 18.7196 42.2932 18.5267 42.0026 18.2654C41.712 18.0042 41.4835 17.6812 41.3339 17.3202C41.1843 16.9592 41.1174 16.5693 41.1381 16.179C41.1588 15.7888 41.2666 15.4081 41.4535 15.065L41.9335 14.189C44.6125 9.26896 39.2275 3.88997 34.3105 6.56896L33.4345 7.04596C33.0913 7.23288 32.7106 7.34063 32.3204 7.36132C31.9302 7.38201 31.5403 7.31511 31.1793 7.16552C30.8182 7.01594 30.4953 6.78746 30.234 6.49684C29.9728 6.20622 29.7799 5.86082 29.6695 5.48596L29.3875 4.52896ZM21.4885 5.37796C22.2265 2.87296 25.7725 2.87296 26.5105 5.37796L26.7925 6.33496C27.0295 7.13922 27.4436 7.88023 28.0043 8.50366C28.5649 9.1271 29.258 9.61715 30.0327 9.9379C30.8074 10.2587 31.644 10.402 32.4813 10.3573C33.3186 10.3127 34.1353 10.0813 34.8715 9.67996L35.7445 9.19996C38.0365 7.95496 40.5445 10.46 39.2965 12.755L38.8195 13.631C38.4188 14.3672 38.1879 15.1838 38.1438 16.0209C38.0996 16.858 38.2433 17.6944 38.5643 18.4687C38.8853 19.2431 39.3755 19.9358 39.999 20.4961C40.6225 21.0564 41.3634 21.4701 42.1675 21.707L43.1215 21.989C45.6265 22.727 45.6265 26.273 43.1215 27.011L42.1645 27.293C41.3602 27.53 40.6192 27.9441 39.9958 28.5047C39.3723 29.0654 38.8823 29.7585 38.5615 30.5332C38.2408 31.3079 38.0975 32.1445 38.1421 32.9818C38.1867 33.8191 38.4182 34.6358 38.8195 35.372L39.2995 36.245C40.5445 38.537 38.0395 41.045 35.7445 39.797L34.8715 39.32C34.1351 38.9187 33.3182 38.6874 32.4808 38.6429C31.6433 38.5985 30.8066 38.7421 30.0318 39.0631C29.2571 39.3842 28.564 39.8746 28.0035 40.4983C27.443 41.1221 27.0292 41.8634 26.7925 42.668L26.5105 43.622C25.7725 46.127 22.2265 46.127 21.4885 43.622L21.2065 42.665C20.9693 41.8611 20.5553 41.1205 19.9949 40.4974C19.4344 39.8743 18.7416 39.3844 17.9673 39.0637C17.193 38.743 16.3568 38.5996 15.5199 38.6439C14.683 38.6882 13.8666 38.9192 13.1305 39.32L12.2545 39.8C9.96248 41.045 7.45448 38.54 8.70248 36.245L9.17948 35.372C9.58133 34.6356 9.81323 33.8187 9.85816 32.9811C9.90308 32.1434 9.7599 31.3064 9.43911 30.5313C9.11832 29.7562 8.62806 29.0628 8.00431 28.5019C7.38056 27.941 6.63915 27.5269 5.83448 27.29L4.87748 27.008C2.37248 26.27 2.37248 22.724 4.87748 21.986L5.83448 21.704C6.63789 21.4667 7.37809 21.0528 8.0009 20.4925C8.62371 19.9323 9.11337 19.2398 9.43404 18.4659C9.75471 17.692 9.89827 16.8562 9.85423 16.0196C9.81018 15.1831 9.57964 14.3669 9.17948 13.631L8.69948 12.755C7.45448 10.463 9.95948 7.95496 12.2545 9.20296L13.1305 9.67996C13.8666 10.0807 14.683 10.3117 15.5199 10.356C16.3568 10.4004 17.193 10.2569 17.9673 9.93621C18.7416 9.61551 19.4344 9.12565 19.9949 8.50253C20.5553 7.87941 20.9693 7.1388 21.2065 6.33496L21.4885 5.37796Z" fill="black"/>
</svg>
