<svg width="31" height="29" viewBox="0 0 31 29" fill="none" xmlns="http://www.w3.org/2000/svg">
<path fill-rule="evenodd" clip-rule="evenodd" d="M3 25.5V12.5H5V25.5C5 25.7652 5.10536 26.0196 5.29289 26.2071C5.48043 26.3946 5.73478 26.5 6 26.5H24C24.2652 26.5 24.5196 26.3946 24.7071 26.2071C24.8946 26.0196 25 25.7652 25 25.5V12.5H27V25.5C27 26.2956 26.6839 27.0587 26.1213 27.6213C25.5587 28.1839 24.7956 28.5 24 28.5H6C5.20435 28.5 4.44129 28.1839 3.87868 27.6213C3.31607 27.0587 3 26.2956 3 25.5ZM25 3.5V10.5L21 6.5V3.5C21 3.23478 21.1054 2.98043 21.2929 2.79289C21.4804 2.60536 21.7348 2.5 22 2.5H24C24.2652 2.5 24.5196 2.60536 24.7071 2.79289C24.8946 2.98043 25 3.23478 25 3.5Z" fill="white"/>
<path fill-rule="evenodd" clip-rule="evenodd" d="M13.5863 1.49964C13.9613 1.12469 14.47 0.914062 15.0003 0.914063C15.5306 0.914062 16.0392 1.12469 16.4143 1.49964L29.7083 14.7916C29.8961 14.9794 30.0016 15.2341 30.0016 15.4996C30.0016 15.7652 29.8961 16.0199 29.7083 16.2076C29.5205 16.3954 29.2658 16.5009 29.0003 16.5009C28.7347 16.5009 28.4801 16.3954 28.2923 16.2076L15.0003 2.91364L1.70829 16.2076C1.52051 16.3954 1.26584 16.5009 1.00029 16.5009C0.734735 16.5009 0.48006 16.3954 0.292287 16.2076C0.104513 16.0199 -0.000976562 15.7652 -0.000976562 15.4996C-0.000976562 15.2341 0.104513 14.9794 0.292287 14.7916L13.5863 1.49964Z" fill="white"/>
</svg>
