<svg width="32" height="25" viewBox="0 0 32 25" fill="none" xmlns="http://www.w3.org/2000/svg">
<path fill-rule="evenodd" clip-rule="evenodd" d="M20 21.5C20 21.7652 19.8946 22.0196 19.7071 22.2071C19.5196 22.3946 19.2652 22.5 19 22.5H3C2.73478 22.5 2.48043 22.3946 2.29289 22.2071C2.10536 22.0196 2 21.7652 2 21.5V3.5C2 3.23478 2.10536 2.98043 2.29289 2.79289C2.48043 2.60536 2.73478 2.5 3 2.5H19C19.2652 2.5 19.5196 2.60536 19.7071 2.79289C19.8946 2.98043 20 3.23478 20 3.5V7.5C20 7.76522 20.1054 8.01957 20.2929 8.20711C20.4804 8.39464 20.7348 8.5 21 8.5C21.2652 8.5 21.5196 8.39464 21.7071 8.20711C21.8946 8.01957 22 7.76522 22 7.5V3.5C22 2.70435 21.6839 1.94129 21.1213 1.37868C20.5587 0.816071 19.7956 0.5 19 0.5H3C2.20435 0.5 1.44129 0.816071 0.87868 1.37868C0.31607 1.94129 0 2.70435 0 3.5L0 21.5C0 22.2956 0.31607 23.0587 0.87868 23.6213C1.44129 24.1839 2.20435 24.5 3 24.5H19C19.7956 24.5 20.5587 24.1839 21.1213 23.6213C21.6839 23.0587 22 22.2956 22 21.5V17.5C22 17.2348 21.8946 16.9804 21.7071 16.7929C21.5196 16.6054 21.2652 16.5 21 16.5C20.7348 16.5 20.4804 16.6054 20.2929 16.7929C20.1054 16.9804 20 17.2348 20 17.5V21.5Z" fill="white"/>
<path fill-rule="evenodd" clip-rule="evenodd" d="M31.708 13.2078C31.8011 13.1149 31.875 13.0046 31.9254 12.8831C31.9758 12.7616 32.0018 12.6313 32.0018 12.4998C32.0018 12.3683 31.9758 12.238 31.9254 12.1165C31.875 11.995 31.8011 11.8847 31.708 11.7918L25.708 5.7918C25.5202 5.60403 25.2656 5.49854 25 5.49854C24.7344 5.49854 24.4798 5.60403 24.292 5.7918C24.1042 5.97957 23.9987 6.23425 23.9987 6.4998C23.9987 6.76535 24.1042 7.02003 24.292 7.2078L28.586 11.4998H11C10.7348 11.4998 10.4804 11.6052 10.2929 11.7927C10.1054 11.9802 10 12.2346 10 12.4998C10 12.765 10.1054 13.0194 10.2929 13.2069C10.4804 13.3944 10.7348 13.4998 11 13.4998H28.586L24.292 17.7918C24.1042 17.9796 23.9987 18.2342 23.9987 18.4998C23.9987 18.7653 24.1042 19.02 24.292 19.2078C24.4798 19.3956 24.7344 19.5011 25 19.5011C25.2656 19.5011 25.5202 19.3956 25.708 19.2078L31.708 13.2078Z" fill="white"/>
</svg>
