<svg width="48" height="37" viewBox="0 0 48 37" fill="none" xmlns="http://www.w3.org/2000/svg">
<path d="M24 6.5C24.3978 6.5 24.7794 6.65804 25.0607 6.93934C25.342 7.22064 25.5 7.60218 25.5 8V12.5C25.5 12.8978 25.342 13.2794 25.0607 13.5607C24.7794 13.842 24.3978 14 24 14C23.6022 14 23.2206 13.842 22.9393 13.5607C22.658 13.2794 22.5 12.8978 22.5 12.5V8C22.5 7.60218 22.658 7.22064 22.9393 6.93934C23.2206 6.65804 23.6022 6.5 24 6.5ZM11.196 11.696C11.4773 11.4148 11.8588 11.2568 12.2565 11.2568C12.6542 11.2568 13.0357 11.4148 13.317 11.696L16.062 14.438C16.2015 14.5775 16.3121 14.743 16.3876 14.9253C16.463 15.1075 16.5019 15.3028 16.5019 15.5C16.5019 15.6972 16.463 15.8925 16.3876 16.0748C16.3121 16.257 16.2015 16.4225 16.062 16.562C15.9225 16.7015 15.757 16.8121 15.5748 16.8876C15.3925 16.963 15.1972 17.0019 15 17.0019C14.8028 17.0019 14.6075 16.963 14.4252 16.8876C14.243 16.8121 14.0775 16.7015 13.938 16.562L11.196 13.817C10.9148 13.5357 10.7568 13.1542 10.7568 12.7565C10.7568 12.3588 10.9148 11.9773 11.196 11.696ZM6 24.5C6 24.1022 6.15804 23.7206 6.43934 23.4393C6.72064 23.158 7.10218 23 7.5 23H12.258C12.6558 23 13.0374 23.158 13.3187 23.4393C13.6 23.7206 13.758 24.1022 13.758 24.5C13.758 24.8978 13.6 25.2794 13.3187 25.5607C13.0374 25.842 12.6558 26 12.258 26H7.5C7.10218 26 6.72064 25.842 6.43934 25.5607C6.15804 25.2794 6 24.8978 6 24.5ZM34.5 24.5C34.5 24.1022 34.658 23.7206 34.9393 23.4393C35.2206 23.158 35.6022 23 36 23H40.5C40.8978 23 41.2794 23.158 41.5607 23.4393C41.842 23.7206 42 24.1022 42 24.5C42 24.8978 41.842 25.2794 41.5607 25.5607C41.2794 25.842 40.8978 26 40.5 26H36C35.6022 26 35.2206 25.842 34.9393 25.5607C34.658 25.2794 34.5 24.8978 34.5 24.5ZM36.762 11.762C36.5542 11.5553 36.2762 11.4343 35.9832 11.4232C35.6903 11.4121 35.4039 11.5116 35.181 11.702L22.641 22.43C22.3488 22.6762 22.1116 22.9809 21.9446 23.3246C21.7776 23.6682 21.6846 24.043 21.6716 24.4249C21.6586 24.8067 21.7259 25.187 21.8691 25.5412C22.0124 25.8954 22.2283 26.2156 22.5031 26.481C22.7778 26.7465 23.1053 26.9514 23.4642 27.0823C23.8231 27.2133 24.2055 27.2675 24.5866 27.2414C24.9678 27.2153 25.3392 27.1094 25.6769 26.9307C26.0146 26.752 26.311 26.5045 26.547 26.204L36.849 13.313C37.0282 13.0886 37.1184 12.8061 37.1024 12.5194C37.0863 12.2327 36.9652 11.9619 36.762 11.759V11.762Z" fill="black"/>
<path fill-rule="evenodd" clip-rule="evenodd" d="M1.59235e-05 24.4994C0.00315203 21.0068 0.768535 17.557 2.24273 14.3908C3.71693 11.2246 5.86441 8.41825 8.53527 6.16774C11.2061 3.91724 14.336 2.27678 17.7064 1.3609C21.0767 0.445019 24.6064 0.27578 28.0489 0.864999C31.4915 1.45422 34.7639 2.7877 37.6378 4.77234C40.5118 6.75699 42.9179 9.34497 44.6883 12.3556C46.4586 15.3663 47.5506 18.7271 47.8878 22.2033C48.2251 25.6796 47.7996 29.1876 46.641 32.4824C45.315 36.2414 41.106 37.2884 37.845 36.2324C33.927 34.9634 28.425 33.4994 24 33.4994C19.578 33.4994 14.07 34.9634 10.155 36.2324C6.89402 37.2884 2.68502 36.2414 1.35902 32.4824C0.456442 29.9178 -0.00311826 27.2183 1.59235e-05 24.4994ZM24 3.49945C20.6411 3.49858 17.331 4.30343 14.3475 5.84644C11.3641 7.38946 8.79422 9.62562 6.85371 12.3673C4.91321 15.1089 3.65865 18.276 3.19534 21.6028C2.73202 24.9295 3.07347 28.3189 4.19102 31.4864C4.80002 33.2114 6.96002 34.1144 9.23102 33.3764C13.191 32.0984 19.074 30.4994 24 30.4994C28.926 30.4994 34.812 32.0954 38.769 33.3794C41.04 34.1144 43.2 33.2114 43.809 31.4864C44.9266 28.3189 45.268 24.9295 44.8047 21.6028C44.3414 18.276 43.0868 15.1089 41.1463 12.3673C39.2058 9.62562 36.636 7.38946 33.6525 5.84644C30.669 4.30343 27.3589 3.49858 24 3.49945Z" fill="black"/>
</svg>
