<svg width="6" height="10" viewBox="0 0 6 10" fill="none" xmlns="http://www.w3.org/2000/svg">
<path fill-rule="evenodd" clip-rule="evenodd" d="M0.484499 0.217576C0.519333 0.183283 0.560715 0.156075 0.606274 0.13751C0.651832 0.118946 0.700673 0.10939 0.749999 0.10939C0.799324 0.10939 0.848165 0.118946 0.893724 0.13751C0.939283 0.156075 0.980665 0.183283 1.0155 0.217576L5.5155 4.63652C5.55042 4.67073 5.57813 4.71136 5.59703 4.7561C5.61594 4.80084 5.62567 4.8488 5.62567 4.89724C5.62567 4.94568 5.61594 4.99364 5.59703 5.03837C5.57813 5.08311 5.55042 5.12375 5.5155 5.15796L1.0155 9.5769C0.945084 9.64605 0.849581 9.68489 0.749999 9.68489C0.650417 9.68489 0.554914 9.64605 0.484499 9.5769C0.414084 9.50776 0.374525 9.41397 0.374525 9.31618C0.374525 9.2184 0.414084 9.12461 0.484499 9.05547L4.71975 4.89724L0.484499 0.739012C0.449576 0.704805 0.421869 0.664169 0.402964 0.61943C0.384059 0.574692 0.374329 0.526731 0.374329 0.478294C0.374329 0.429857 0.384059 0.381896 0.402964 0.337158C0.421869 0.292419 0.449576 0.251783 0.484499 0.217576Z" fill="#727777"/>
</svg>
