<svg width="15" height="12" viewBox="0 0 15 12" fill="none" xmlns="http://www.w3.org/2000/svg">
<path d="M3.49999 0.5C3.49999 0.367392 3.44731 0.240215 3.35354 0.146447C3.25978 0.0526785 3.1326 0 2.99999 0C2.86738 0 2.74021 0.0526785 2.64644 0.146447C2.55267 0.240215 2.49999 0.367392 2.49999 0.5V9.293L1.35399 8.146C1.2601 8.05211 1.13277 7.99937 0.999991 7.99937C0.867215 7.99937 0.739877 8.05211 0.645991 8.146C0.552104 8.23989 0.499359 8.36722 0.499359 8.5C0.499359 8.63278 0.552104 8.76011 0.645991 8.854L2.64599 10.853L2.65299 10.86C2.74687 10.9515 2.87311 11.0023 3.00423 11.0011C3.13534 11 3.2607 10.9471 3.35299 10.854L5.35299 8.854C5.39948 8.80758 5.43637 8.75245 5.46155 8.69177C5.48674 8.6311 5.49972 8.56605 5.49977 8.50035C5.49982 8.43466 5.48692 8.36959 5.46182 8.30888C5.43672 8.24816 5.39991 8.19299 5.35349 8.1465C5.30707 8.10001 5.25194 8.06312 5.19127 8.03794C5.13059 8.01275 5.06554 7.99977 4.99984 7.99972C4.93415 7.99968 4.86908 8.01257 4.80837 8.03767C4.74766 8.06277 4.69248 8.09958 4.64599 8.146L3.49999 9.293V0.5ZM6.99999 1.5C6.99999 1.36739 7.05267 1.24021 7.14644 1.14645C7.24021 1.05268 7.36738 1 7.49999 1H14.5C14.6326 1 14.7598 1.05268 14.8535 1.14645C14.9473 1.24021 15 1.36739 15 1.5C15 1.63261 14.9473 1.75979 14.8535 1.85355C14.7598 1.94732 14.6326 2 14.5 2H7.49999C7.36738 2 7.24021 1.94732 7.14644 1.85355C7.05267 1.75979 6.99999 1.63261 6.99999 1.5ZM7.49999 4C7.36738 4 7.24021 4.05268 7.14644 4.14645C7.05267 4.24021 6.99999 4.36739 6.99999 4.5C6.99999 4.63261 7.05267 4.75979 7.14644 4.85355C7.24021 4.94732 7.36738 5 7.49999 5H12.5C12.6326 5 12.7598 4.94732 12.8535 4.85355C12.9473 4.75979 13 4.63261 13 4.5C13 4.36739 12.9473 4.24021 12.8535 4.14645C12.7598 4.05268 12.6326 4 12.5 4H7.49999ZM7.49999 7C7.36738 7 7.24021 7.05268 7.14644 7.14645C7.05267 7.24021 6.99999 7.36739 6.99999 7.5C6.99999 7.63261 7.05267 7.75979 7.14644 7.85355C7.24021 7.94732 7.36738 8 7.49999 8H10.5C10.6326 8 10.7598 7.94732 10.8535 7.85355C10.9473 7.75979 11 7.63261 11 7.5C11 7.36739 10.9473 7.24021 10.8535 7.14645C10.7598 7.05268 10.6326 7 10.5 7H7.49999ZM7.49999 10C7.36738 10 7.24021 10.0527 7.14644 10.1464C7.05267 10.2402 6.99999 10.3674 6.99999 10.5C6.99999 10.6326 7.05267 10.7598 7.14644 10.8536C7.24021 10.9473 7.36738 11 7.49999 11H8.49999C8.6326 11 8.75978 10.9473 8.85354 10.8536C8.94731 10.7598 8.99999 10.6326 8.99999 10.5C8.99999 10.3674 8.94731 10.2402 8.85354 10.1464C8.75978 10.0527 8.6326 10 8.49999 10H7.49999Z" fill="#5C5C6E"/>
</svg>
